# xmcd
#
# Track frame offsets:
#  182
#  11272
#  22837
#  36570
#  48830
#  60785
#  71492
#  81967
#  90055
#  101535
#  112002
#  122282
#  135715
#  147182
#  161880
#
# Disc length: 2416 seconds
#
# Revision: 0
# Processed by: cddbd v1.5PL3 Copyright (c) Steve Scherf et al.
# Submitted via: AltoMP3_Maker 3.0
#
DISCID=b2096e0f
DTITLE=Chuck Berry - Maybellene
DYEAR=1900
DGENRE=
TTITLE0=Roll Over Beethoven
TTITLE1=Rock and Roll Music
TTITLE2=Sweet Little Sixteen
TTITLE3=No Particular Place To Go
TTITLE4=Johnny B. Goode
TTITLE5=Sweet Little Rock and Roller
TTITLE6=Brown Eyed Handsome Man
TTITLE7=Let It Rock
TTITLE8=Nadine
TTITLE9=Maybellene
TTITLE10=Memphis
TTITLE11=Too Much Monkey Business
TTITLE12=Promised Land
TTITLE13=Reelin' and Rockin'
TTITLE14=My Ding A Ling
EXTD=
EXTT0=
EXTT1=
EXTT2=
EXTT3=
EXTT4=
EXTT5=
EXTT6=
EXTT7=
EXTT8=
EXTT9=
EXTT10=
EXTT11=
EXTT12=
EXTT13=
EXTT14=
PLAYORDER=
